<?xml version="1.0" encoding="utf-8"?>
<!-- Generator: Adobe Illustrator 21.0.0, SVG Export Plug-In . SVG Version: 6.00 Build 0)  -->
<svg version="1.1" id="Layer_1" xmlns="http://www.w3.org/2000/svg" xmlns:xlink="http://www.w3.org/1999/xlink" x="0px" y="0px"
	 viewBox="0 0 197.1 90.5" style="enable-background:new 0 0 197.1 90.5;" xml:space="preserve">
<style type="text/css">
	.st0{fill:#424142;}
	.st1{clip-path:url(#SVGID_2_);fill:url(#SVGID_3_);}
	.st2{clip-path:url(#SVGID_5_);fill:url(#SVGID_6_);}
</style>
<g>
	<g>
		<g>
			<path class="st0" d="M34.8,5c3,0,5.8,0.3,8.2,0.8c2.5,0.5,4.6,1.4,6.4,2.6c1.8,1.2,3.1,2.8,4.1,4.8c1,2,1.5,4.5,1.5,7.4
				c0,3.2-0.7,5.8-2.2,8c-1.4,2.1-3.6,3.9-6.4,5.2c3.9,1.1,6.8,3.1,8.7,5.9C57,42.6,58,45.9,58,49.9c0,3.2-0.6,5.9-1.9,8.3
				c-1.2,2.3-2.9,4.2-5,5.7c-2.1,1.5-4.5,2.6-7.2,3.3c-2.7,0.7-5.4,1.1-8.3,1.1H5V5H34.8z M33,30.6c2.5,0,4.5-0.6,6.1-1.8
				c1.6-1.2,2.4-3.1,2.4-5.8c0-1.5-0.3-2.7-0.8-3.6c-0.5-0.9-1.2-1.7-2.1-2.2c-0.9-0.5-1.9-0.9-3.1-1.1c-1.2-0.2-2.3-0.3-3.6-0.3
				h-13v14.8H33z M33.8,57.4c1.4,0,2.7-0.1,3.9-0.4c1.2-0.3,2.3-0.7,3.3-1.3c0.9-0.6,1.7-1.5,2.3-2.5c0.6-1.1,0.8-2.4,0.8-4.1
				c0-3.2-0.9-5.6-2.7-7c-1.8-1.4-4.3-2.1-7.3-2.1H18.9v17.4H33.8z"/>
			<path class="st0" d="M61.9,15.4V5h12.6v10.4H61.9z M74.5,22.4v45.8H61.9V22.4H74.5z"/>
			<path class="st0" d="M92.9,5v63.2H80.4V5H92.9z"/>
			<path class="st0" d="M98.7,35.4c1.1-3,2.7-5.5,4.8-7.6c2.1-2.1,4.5-3.7,7.4-4.9c2.9-1.2,6.1-1.7,9.7-1.7c3.6,0,6.9,0.6,9.8,1.7
				c2.9,1.2,5.4,2.8,7.5,4.9c2.1,2.1,3.7,4.6,4.8,7.6c1.1,3,1.7,6.3,1.7,10c0,3.7-0.6,7-1.7,9.9c-1.1,3-2.7,5.5-4.8,7.6
				c-2.1,2.1-4.6,3.7-7.5,4.8c-2.9,1.1-6.2,1.7-9.8,1.7c-3.6,0-6.8-0.6-9.7-1.7c-2.9-1.1-5.4-2.7-7.4-4.8c-2.1-2.1-3.7-4.6-4.8-7.6
				c-1.1-3-1.7-6.3-1.7-9.9C97,41.7,97.6,38.4,98.7,35.4z M110.1,50.7c0.4,1.7,1,3.3,1.8,4.7c0.9,1.4,2,2.5,3.4,3.3
				c1.4,0.8,3.2,1.2,5.3,1.2c2.1,0,3.9-0.4,5.4-1.2c1.4-0.8,2.6-1.9,3.5-3.3c0.9-1.4,1.5-3,1.8-4.7c0.4-1.7,0.5-3.5,0.5-5.4
				c0-1.8-0.2-3.6-0.5-5.4c-0.4-1.8-1-3.3-1.8-4.7c-0.9-1.4-2-2.5-3.5-3.3c-1.4-0.9-3.2-1.3-5.4-1.3c-2.1,0-3.9,0.4-5.3,1.3
				c-1.4,0.9-2.6,2-3.4,3.3c-0.9,1.4-1.5,2.9-1.8,4.7c-0.4,1.8-0.5,3.6-0.5,5.4C109.6,47.2,109.8,49,110.1,50.7z"/>
			<path class="st0" d="M191.4,71.6c-0.5,2.4-1.6,4.6-3.2,6.6c-1.7,2-4,3.8-7.2,5.2c-3.1,1.4-7.3,2.1-12.6,2.1
				c-2.2,0-4.5-0.3-6.9-0.8c-2.3-0.6-4.5-1.4-6.4-2.6c-1.9-1.2-3.5-2.7-4.8-4.6c-1.3-1.9-2-4.1-2.2-6.7h12.5c0.6,2.4,1.7,4,3.5,4.9
				c1.7,0.9,3.7,1.4,5.9,1.4c3.5,0,6.1-1.1,7.7-3.2c1.6-2.1,2.4-4.8,2.3-8.1v-6H180c-1.4,2.4-3.3,4.2-5.8,5.4
				c-2.5,1.2-5.2,1.7-7.9,1.7c-3.4,0-6.4-0.6-8.9-1.8c-2.5-1.2-4.5-2.9-6.1-5c-1.6-2.1-2.8-4.5-3.5-7.4c-0.7-2.8-1.1-5.8-1.1-8.9
				c0-3,0.4-5.8,1.3-8.5c0.9-2.7,2.1-5.2,3.8-7.3c1.7-2.1,3.7-3.8,6.2-5c2.4-1.2,5.3-1.9,8.5-1.9c3,0,5.7,0.6,7.9,1.7
				c2.3,1.1,4.2,3,5.7,5.7h0.2v-6.1h12v42.9C192.1,67.1,191.9,69.2,191.4,71.6z M174.2,56.4c1.4-0.7,2.5-1.7,3.4-2.8
				c0.9-1.2,1.5-2.5,2-4c0.4-1.5,0.7-3.1,0.7-4.7c0-1.9-0.2-3.7-0.5-5.4c-0.4-1.7-0.9-3.2-1.8-4.5c-0.8-1.3-1.9-2.3-3.3-3.1
				c-1.4-0.8-3.1-1.2-5.1-1.2c-1.8,0-3.3,0.4-4.6,1.1c-1.3,0.7-2.3,1.7-3.2,2.9c-0.9,1.2-1.5,2.6-1.9,4.2c-0.4,1.6-0.6,3.2-0.6,4.9
				c0,1.7,0.2,3.3,0.5,4.9c0.3,1.6,0.9,3.1,1.7,4.4c0.8,1.3,1.8,2.4,3.1,3.2c1.3,0.8,2.9,1.2,4.9,1.2
				C171.2,57.4,172.8,57.1,174.2,56.4z"/>
		</g>
	</g>
	<g>
		<g>
			<defs>
				<path id="SVGID_1_" d="M110.9,67.7c2.9,1.1,6.1,1.7,9.7,1.7c3.6,0,6.9-0.6,9.8-1.7c2.9-1.1,5.4-2.7,7.5-4.8
					c1.8-1.8,3.2-3.9,4.3-6.4c-11.3,3.3-23.6,6-36.9,8C107,65.8,108.8,66.9,110.9,67.7z"/>
			</defs>
			<clipPath id="SVGID_2_">
				<use xlink:href="#SVGID_1_"  style="overflow:visible;"/>
			</clipPath>
			<linearGradient id="SVGID_3_" gradientUnits="userSpaceOnUse" x1="109.2035" y1="99.9876" x2="189.8103" y2="19.3808">
				<stop  offset="0" style="stop-color:#00FFFF"/>
				<stop  offset="0.2151" style="stop-color:#00CDFF"/>
				<stop  offset="0.7028" style="stop-color:#004FFF"/>
				<stop  offset="0.9987" style="stop-color:#0000FF"/>
			</linearGradient>
			<rect x="101.4" y="27.2" class="st1" width="96.1" height="65.1"/>
		</g>
		<g>
			<defs>
				<path id="SVGID_4_" d="M180.2,44.8c0,1.7-0.2,3.2-0.7,4.7c-0.4,1.5-1.1,2.8-2,4c-0.9,1.2-2,2.1-3.4,2.8
					c-1.4,0.7-2.9,1.1-4.7,1.1c-1.9,0-3.6-0.4-4.9-1.2c-1.3-0.8-2.3-1.9-3.1-3.2c-0.5-0.8-0.9-1.7-1.2-2.7
					c-3.8,1.5-7.7,2.9-11.8,4.3c0.7,2.1,1.7,3.9,2.9,5.5c1.6,2.1,3.6,3.7,6.1,5c2.5,1.2,5.4,1.8,8.9,1.8c2.8,0,5.4-0.6,7.9-1.7
					c2.5-1.2,4.4-2.9,5.8-5.4h0.2v6c0.1,3.2-0.7,5.9-2.3,8.1c-1.6,2.1-4.2,3.2-7.7,3.2c-2.2,0-4.2-0.5-5.9-1.4
					c-1.7-0.9-2.9-2.6-3.5-4.9h-12.5c0.2,2.6,0.9,4.8,2.2,6.7c1.3,1.9,2.9,3.4,4.8,4.6c1.9,1.2,4,2.1,6.4,2.6
					c2.3,0.6,4.6,0.8,6.9,0.8c5.3,0,9.4-0.7,12.6-2.1c3.1-1.4,5.5-3.1,7.2-5.2c1.7-2,2.7-4.2,3.2-6.6c0.5-2.4,0.8-4.5,0.8-6.3V31.8
					c-3.5,3.1-7.6,6.1-12.3,8.9C180.1,42,180.2,43.3,180.2,44.8z"/>
			</defs>
			<clipPath id="SVGID_5_">
				<use xlink:href="#SVGID_4_"  style="overflow:visible;"/>
			</clipPath>
			<linearGradient id="SVGID_6_" gradientUnits="userSpaceOnUse" x1="109.2035" y1="99.9876" x2="189.8103" y2="19.3808">
				<stop  offset="0" style="stop-color:#00FFFF"/>
				<stop  offset="0.2151" style="stop-color:#00CDFF"/>
				<stop  offset="0.7028" style="stop-color:#004FFF"/>
				<stop  offset="0.9987" style="stop-color:#0000FF"/>
			</linearGradient>
			<rect x="101.4" y="27.2" class="st2" width="96.1" height="65.1"/>
		</g>
	</g>
</g>
</svg>
